<svg width="1920" height="972" viewBox="0 0 1920 972" fill="none" xmlns="http://www.w3.org/2000/svg">
<path d="M2044.61 19.1735C1398.72 261.705 494.463 778.465 2044.61 905.248V19.1735Z" fill="#007CED"/>
<path d="M2223.62 81.4104C1577.73 323.942 673.473 717.511 2223.62 844.295V81.4104Z" fill="black"/>
<path d="M2394.29 128.89C1748.4 341.029 844.142 685.277 2394.29 796.173V128.89Z" fill="#007CED"/>
<path d="M2258.27 236.682C1844.78 390.891 1265.89 641.133 2258.27 721.745V236.682Z" fill="black"/>
<path d="M1429.3 633.202C1429.3 634.62 1430.45 635.769 1431.87 635.769C1433.28 635.769 1434.43 634.62 1434.43 633.202C1434.43 631.785 1433.28 630.636 1431.87 630.636C1430.45 630.636 1429.3 631.785 1429.3 633.202Z" fill="white"/>
<path d="M350.098 0.566473C350.098 1.9839 351.247 3.13295 352.664 3.13295C354.082 3.13295 355.231 1.9839 355.231 0.566473C355.231 -0.850951 354.082 -2 352.664 -2C351.247 -2 350.098 -0.850951 350.098 0.566473Z" fill="white"/>
<path d="M1992.64 569.04C1992.64 570.458 1993.79 571.607 1995.21 571.607C1996.62 571.607 1997.77 570.458 1997.77 569.04C1997.77 567.623 1996.62 566.474 1995.21 566.474C1993.79 566.474 1992.64 567.623 1992.64 569.04Z" fill="white"/>
<path d="M1186.77 57.0289C1186.77 58.4463 1187.92 59.5953 1189.33 59.5953C1190.75 59.5953 1191.9 58.4463 1191.9 57.0289C1191.9 55.6115 1190.75 54.4624 1189.33 54.4624C1187.92 54.4624 1186.77 55.6115 1186.77 57.0289Z" fill="white"/>
<path d="M867.242 734.578C867.242 735.995 868.391 737.144 869.809 737.144C871.226 737.144 872.375 735.995 872.375 734.578C872.375 733.161 871.226 732.011 869.809 732.011C868.391 732.011 867.242 733.161 867.242 734.578Z" fill="white"/>
<path d="M1666.7 879.584C1666.7 881.001 1667.85 882.15 1669.27 882.15C1670.68 882.15 1671.83 881.001 1671.83 879.584C1671.83 878.166 1670.68 877.017 1669.27 877.017C1667.85 877.017 1666.7 878.166 1666.7 879.584Z" fill="white"/>
<path d="M1447.27 177.653C1447.27 179.071 1448.41 180.22 1449.83 180.22C1451.25 180.22 1452.4 179.071 1452.4 177.653C1452.4 176.236 1451.25 175.087 1449.83 175.087C1448.41 175.087 1447.27 176.236 1447.27 177.653Z" fill="white"/>
<path d="M930 392.566C930 393.984 931.149 395.133 932.566 395.133C933.984 395.133 935.133 393.984 935.133 392.566C935.133 391.149 933.984 390 932.566 390C931.149 390 930 391.149 930 392.566Z" fill="white"/>
<path d="M1336.91 318.809C1336.91 320.227 1338.06 321.376 1339.47 321.376C1340.89 321.376 1342.04 320.227 1342.04 318.809C1342.04 317.392 1340.89 316.243 1339.47 316.243C1338.06 316.243 1336.91 317.392 1336.91 318.809Z" fill="white"/>
<path d="M1357.44 681.324C1357.44 682.387 1356.58 683.248 1355.51 683.248C1354.45 683.248 1353.59 682.387 1353.59 681.324C1353.59 680.26 1354.45 679.399 1355.51 679.399C1356.58 679.399 1357.44 680.26 1357.44 681.324Z" fill="black"/>
<path d="M1984.94 64.0867C1984.94 65.1498 1984.08 66.0116 1983.02 66.0116C1981.95 66.0116 1981.09 65.1498 1981.09 64.0867C1981.09 63.0237 1981.95 62.1619 1983.02 62.1619C1984.08 62.1619 1984.94 63.0237 1984.94 64.0867Z" fill="black"/>
<path d="M1617.94 771.15C1617.94 772.213 1617.07 773.075 1616.01 773.075C1614.95 773.075 1614.09 772.213 1614.09 771.15C1614.09 770.087 1614.95 769.225 1616.01 769.225C1617.07 769.225 1617.94 770.087 1617.94 771.15Z" fill="black"/>
<path d="M1710.33 103.867C1710.33 116.27 1700.27 126.324 1687.87 126.324C1675.47 126.324 1665.42 116.27 1665.42 103.867C1665.42 91.4646 1675.47 81.4104 1687.87 81.4104C1700.27 81.4104 1710.33 91.4646 1710.33 103.867Z" fill="#007CED"/>
<path d="M1518.41 446.155C1512.74 463.313 1494.23 472.622 1477.07 466.948C1459.91 461.273 1450.6 442.764 1456.27 425.605C1461.95 408.447 1480.46 399.138 1497.62 404.813C1514.78 410.487 1524.08 428.997 1518.41 446.155Z" fill="#007CED"/>
<path d="M1497.62 404.813C1480.46 399.138 1462.12 407.94 1456.27 425.605C1453.34 434.488 1453.43 440.959 1457.14 449.545C1458.55 445.281 1508.39 411.077 1508.39 411.077C1508.39 411.077 1506.75 407.835 1497.62 404.813Z" fill="black"/>
<path d="M1362.57 759.601C1362.57 762.081 1360.56 764.092 1358.08 764.092C1355.6 764.092 1353.59 762.081 1353.59 759.601C1353.59 757.12 1355.6 755.11 1358.08 755.11C1360.56 755.11 1362.57 757.12 1362.57 759.601Z" fill="black"/>
<path d="M1611.52 569.682C1611.52 571.454 1610.08 572.89 1608.31 572.89C1606.54 572.89 1605.1 571.454 1605.1 569.682C1605.1 567.91 1606.54 566.474 1608.31 566.474C1610.08 566.474 1611.52 567.91 1611.52 569.682Z" fill="black"/>
<path d="M1764.22 236.04C1764.22 238.521 1762.21 240.532 1759.73 240.532C1757.25 240.532 1755.24 238.521 1755.24 236.04C1755.24 233.56 1757.25 231.549 1759.73 231.549C1762.21 231.549 1764.22 233.56 1764.22 236.04Z" fill="black"/>
<path d="M1272.01 370.708C1271.95 370.575 1272.01 370.418 1272.14 370.357L1273.43 369.773C1273.56 369.713 1273.72 369.772 1273.78 369.905L1274.36 371.189C1274.42 371.323 1274.36 371.48 1274.23 371.54L1272.95 372.124C1272.81 372.185 1272.66 372.126 1272.59 371.993L1272.01 370.708Z" fill="white"/>
<path d="M888.433 758.488C888.312 758.221 888.43 757.906 888.698 757.784L891.274 756.613C891.541 756.491 891.857 756.61 891.978 756.877L893.15 759.454C893.271 759.721 893.153 760.036 892.886 760.158L890.309 761.329C890.042 761.451 889.726 761.332 889.605 761.065L888.433 758.488Z" fill="white"/>
<path d="M1577.53 968.939C1577.41 968.672 1577.53 968.357 1577.8 968.235L1580.37 967.064C1580.64 966.942 1580.95 967.06 1581.08 967.328L1582.25 969.904C1582.37 970.172 1582.25 970.487 1581.98 970.608L1579.41 971.78C1579.14 971.901 1578.82 971.783 1578.7 971.516L1577.53 968.939Z" fill="white"/>
<path d="M408.503 130.986C408.382 130.718 408.5 130.403 408.767 130.282L411.344 129.11C411.611 128.989 411.927 129.107 412.048 129.374L413.22 131.951C413.341 132.218 413.223 132.534 412.956 132.655L410.379 133.826C410.112 133.948 409.796 133.83 409.675 133.562L408.503 130.986Z" fill="white"/>
<path d="M1028.79 428.96C1028.94 428.743 1029.24 428.692 1029.46 428.845L1031.43 430.241C1031.65 430.395 1031.7 430.695 1031.55 430.913L1030.15 432.883C1030 433.1 1029.7 433.152 1029.48 432.998L1027.51 431.602C1027.29 431.449 1027.24 431.148 1027.39 430.93L1028.79 428.96Z" fill="black"/>
<path d="M1124.68 727.322C1124.85 727.028 1125.23 726.929 1125.53 727.102L1127.93 728.513C1128.22 728.686 1128.32 729.066 1128.15 729.36L1126.74 731.759C1126.56 732.054 1126.18 732.152 1125.89 731.979L1123.49 730.569C1123.2 730.395 1123.1 730.016 1123.27 729.721L1124.68 727.322Z" fill="black"/>
<path d="M1541.64 868.979C1541.5 868.668 1541.63 868.301 1541.94 868.159L1544.48 867.007C1544.79 866.866 1545.16 867.003 1545.3 867.315L1546.45 869.848C1546.59 870.159 1546.45 870.526 1546.14 870.668L1543.61 871.82C1543.3 871.961 1542.93 871.823 1542.79 871.512L1541.64 868.979Z" fill="black"/>
<path d="M1580.13 313.338C1579.99 313.026 1580.13 312.659 1580.44 312.518L1582.97 311.366C1583.29 311.225 1583.65 311.362 1583.79 311.673L1584.95 314.207C1585.09 314.518 1584.95 314.885 1584.64 315.026L1582.11 316.178C1581.79 316.32 1581.43 316.182 1581.29 315.871L1580.13 313.338Z" fill="black"/>
<path d="M-3.12336 909.45C-2.90149 909.802 -3.14388 910.262 -3.55966 910.278L-6.44573 910.39C-6.86151 910.406 -7.13885 909.966 -6.94494 909.598L-5.59897 907.043C-5.40506 906.675 -4.88533 906.655 -4.66345 907.007L-3.12336 909.45Z" fill="white"/>
<path d="M1617.83 5.12257C1618.21 4.95147 1618.63 5.25512 1618.59 5.66915L1618.3 8.54302C1618.26 8.95704 1617.79 9.17092 1617.45 8.928L1615.1 7.24181C1614.77 6.99889 1614.82 6.48135 1615.2 6.31025L1617.83 5.12257Z" fill="white"/>
<path d="M1548.53 406.776C1548.91 406.605 1549.34 406.908 1549.3 407.322L1549.01 410.196C1548.97 410.61 1548.49 410.824 1548.15 410.581L1545.81 408.895C1545.47 408.652 1545.52 408.134 1545.9 407.963L1548.53 406.776Z" fill="white"/>
<path d="M1089.66 541.618C1089.78 541.861 1089.74 542.159 1089.55 542.358L1087.5 544.496C1087.31 544.695 1087.01 544.748 1086.77 544.628L1084.1 543.336C1083.85 543.216 1083.71 542.951 1083.75 542.678L1084.15 539.742C1084.19 539.469 1084.4 539.252 1084.67 539.203L1087.58 538.68C1087.85 538.631 1088.13 538.762 1088.26 539.005L1089.66 541.618Z" fill="white"/>
<path d="M1484.59 61.528C1484.86 61.5267 1485.11 61.7026 1485.19 61.9639L1486.12 64.7785C1486.21 65.0398 1486.12 65.3269 1485.9 65.4897L1483.51 67.2438C1483.28 67.4066 1482.98 67.408 1482.76 67.2474L1480.35 65.5169C1480.13 65.3562 1480.03 65.07 1480.12 64.8079L1481.02 61.9843C1481.1 61.7222 1481.35 61.5439 1481.62 61.5425L1484.59 61.528Z" fill="white"/>
<path d="M1393.11 528.674C1393.2 528.777 1393.21 528.926 1393.14 529.043L1392.38 530.3C1392.31 530.416 1392.17 530.474 1392.04 530.443L1390.61 530.106C1390.47 530.075 1390.38 529.961 1390.37 529.825L1390.24 528.36C1390.23 528.224 1390.31 528.096 1390.44 528.043L1391.79 527.475C1391.92 527.422 1392.06 527.456 1392.15 527.56L1393.11 528.674Z" fill="white"/>
<path d="M1247.19 202.684C1247.46 202.683 1247.71 202.859 1247.79 203.12L1248.72 205.935C1248.81 206.196 1248.72 206.483 1248.5 206.646L1246.11 208.4C1245.88 208.563 1245.58 208.564 1245.36 208.403L1242.95 206.673C1242.73 206.512 1242.64 206.226 1242.72 205.964L1243.62 203.14C1243.71 202.878 1243.95 202.7 1244.22 202.699L1247.19 202.684Z" fill="white"/>
<path d="M1454.32 632.542C1454.42 632.71 1454.41 632.927 1454.28 633.081L1452.93 634.74C1452.8 634.894 1452.59 634.949 1452.41 634.877L1450.41 634.101C1450.23 634.028 1450.11 633.845 1450.12 633.647L1450.24 631.508C1450.25 631.31 1450.39 631.141 1450.58 631.091L1452.65 630.545C1452.85 630.495 1453.05 630.574 1453.16 630.741L1454.32 632.542Z" fill="white"/>
<path d="M1475.6 762.175C1475.88 762.174 1476.12 762.35 1476.21 762.611L1477.14 765.426C1477.23 765.687 1477.13 765.974 1476.91 766.137L1474.52 767.891C1474.3 768.054 1474 768.055 1473.78 767.895L1471.37 766.164C1471.15 766.003 1471.05 765.717 1471.14 765.455L1472.04 762.632C1472.12 762.369 1472.36 762.191 1472.64 762.19L1475.6 762.175Z" fill="white"/>
<path d="M1174.04 893.065C1174.32 893.064 1174.56 893.24 1174.65 893.501L1175.58 896.316C1175.67 896.577 1175.57 896.864 1175.35 897.027L1172.96 898.781C1172.74 898.944 1172.44 898.946 1172.22 898.785L1169.81 897.054C1169.59 896.894 1169.49 896.607 1169.57 896.345L1170.48 893.522C1170.56 893.26 1170.8 893.081 1171.08 893.08L1174.04 893.065Z" fill="white"/>
<path d="M869.217 532.942C869.432 532.94 869.623 533.078 869.69 533.281L870.415 535.476C870.482 535.68 870.411 535.904 870.238 536.031L868.374 537.399C868.201 537.526 867.966 537.527 867.792 537.402L865.915 536.052C865.741 535.927 865.667 535.704 865.733 535.499L866.436 533.297C866.501 533.093 866.691 532.954 866.906 532.953L869.217 532.942Z" fill="black"/>
<path d="M898.397 637.707C898.664 637.586 898.962 637.8 898.933 638.092L898.571 641.7C898.542 641.992 898.208 642.143 897.97 641.971L895.026 639.854C894.788 639.683 894.824 639.319 895.091 639.198L898.397 637.707Z" fill="black"/>
</svg>
